<svg xmlns="http://www.w3.org/2000/svg" version="1.1" width="820" height="115" viewBox="110 308 820 115" xml:space="preserve">
<!-- SGUMMALLA WORKS wordmark -->
<g transform="matrix(1.1595 0 0 1.1595 512 367.2358)">
<g style="">
  <g transform="matrix(1 0 0 1 -318.2042 -8.3162)"><g><g transform="matrix(1 0 0 1 0 0)"><path style="stroke:none;fill:rgb(32,29,35);fill-rule:nonzero;" transform="translate(-99.964,-91.9573)" d="M 117.604 102.9733 C 117.604 100.4533 117.1 98.3653 116.236 96.7093 C 115.372 95.1253 114.22 93.7573 112.78 92.6773 C 111.34 91.6693 109.612 90.8053 107.74 90.1573 C 105.868 89.5093 103.924 88.8613 101.908 88.2853 C 100.612 87.9973 99.532 87.6373 98.524 87.3493 C 97.516 87.0613 96.652 86.7013 95.932 86.4133 C 94.492 85.8373 93.34 85.1173 92.404 84.1093 C 91.396 83.1733 90.964 81.8773 90.964 80.2213 C 90.964 79.0693 91.18 77.9893 91.612 77.1253 C 92.044 76.2613 92.62 75.4693 93.34 74.8933 C 94.06 74.3173 94.852 73.9573 95.86 73.6693 C 96.868 73.3813 97.876 73.2373 99.028 73.2373 C 100.612 73.2373 102.124 73.5973 103.564 74.1733 C 105.004 74.7493 106.156 75.7573 107.02 77.1253 C 108.172 78.9973 109.756 79.8613 111.916 79.8613 L 117.028 79.8613 C 116.884 77.5573 116.308 75.5413 115.3 73.8133 C 114.292 72.0853 112.996 70.7173 111.412 69.5653 C 109.828 68.4133 108.1 67.6213 106.084 67.0453 C 104.068 66.4693 101.98 66.1813 99.82 66.1813 C 97.66 66.1813 95.5 66.4693 93.412 67.0453 C 91.396 67.6213 89.524 68.4853 87.868 69.6373 C 86.284 70.7893 84.988 72.3013 83.98 74.1013 C 82.972 75.9013 82.468 78.0613 82.468 80.5093 C 82.468 83.2453 83.116 85.5493 84.34 87.5653 C 85.564 89.5813 87.436 91.1653 89.884 92.2453 C 90.964 92.7493 92.188 93.1813 93.484 93.6133 C 94.78 94.0453 96.292 94.4773 97.876 94.9093 C 99.244 95.2693 100.396 95.6293 101.404 95.9173 C 102.412 96.2053 103.348 96.4933 104.068 96.7813 C 105.58 97.3573 106.804 98.2213 107.812 99.3013 C 108.82 100.3813 109.252 101.7493 109.252 103.4053 C 109.252 104.7013 109.036 105.8533 108.532 106.7893 C 108.028 107.7253 107.308 108.4453 106.444 109.0213 C 105.58 109.5973 104.644 110.0293 103.564 110.3173 C 102.484 110.6053 101.332 110.7493 100.18 110.7493 C 98.38 110.7493 96.796 110.4613 95.428 109.8133 C 94.06 109.2373 92.908 108.0853 92.044 106.4293 C 91.54 105.4933 90.82 104.7733 89.956 104.1973 C 89.092 103.6213 88.084 103.3333 86.932 103.3333 L 82.324 103.3333 C 82.324 105.7813 82.9 107.9413 83.908 109.7413 C 84.916 111.5413 86.284 113.0533 87.94 114.2053 C 89.668 115.3573 91.54 116.2933 93.7 116.8693 C 95.86 117.4453 98.02 117.7333 100.18 117.7333 C 102.34 117.7333 104.5 117.4453 106.588 116.7973 C 108.676 116.2213 110.548 115.2853 112.132 113.9893 C 113.788 112.7653 115.084 111.2533 116.092 109.3813 C 117.1 107.5093 117.604 105.4213 117.604 102.9733 Z"/></g></g></g>
  <g transform="matrix(1 0 0 1 -275.5081 6.516)"><g><g transform="matrix(1 0 0 1 0 0)"><path style="stroke:none;fill:rgb(32,29,35);fill-rule:nonzero;" transform="translate(-99.172,-106.7893)" d="M 119.692 76.6213 L 97.516 76.6213 C 94.636 76.6213 92.044 77.1973 89.74 78.2773 C 87.436 79.3573 85.42 80.7973 83.764 82.6693 C 82.108 84.5413 80.812 86.7733 79.948 89.2213 C 79.084 91.6693 78.652 94.3333 78.652 97.0693 C 78.652 99.8053 79.084 102.4693 79.948 104.9893 C 80.812 107.5093 82.036 109.7413 83.692 111.6133 C 85.276 113.4853 87.292 114.9973 89.596 116.1493 C 91.9 117.3013 94.564 117.8773 97.516 117.8773 C 98.812 117.8773 100.108 117.7333 101.404 117.4453 C 102.7 117.1573 103.996 116.7253 105.22 116.1493 C 106.372 115.5733 107.524 114.9253 108.604 114.0613 C 109.612 113.1973 110.548 112.2613 111.34 111.1813 L 111.34 117.8773 C 111.34 121.4773 110.404 124.3573 108.532 126.5173 C 106.66 128.6773 103.852 129.7573 100.18 129.7573 C 98.164 129.7573 96.292 129.4693 94.42 128.7493 C 92.548 128.0293 91.108 126.8773 89.956 125.2213 C 89.38 124.4293 88.732 123.8533 87.868 123.4213 C 87.004 123.0613 86.14 122.8453 85.204 122.8453 L 80.596 122.8453 C 80.884 125.3653 81.604 127.5253 82.828 129.2533 C 84.052 131.0533 85.564 132.4933 87.364 133.6453 C 89.164 134.7973 91.18 135.6613 93.412 136.1653 C 95.644 136.7413 97.876 136.9573 100.18 136.9573 C 103.06 136.9573 105.652 136.5253 108.028 135.6613 C 110.404 134.7973 112.492 133.5733 114.22 131.9173 C 115.948 130.3333 117.244 128.3173 118.252 125.9413 C 119.188 123.5653 119.692 120.9013 119.692 117.8773 L 119.692 88.6453 L 117.1 88.6453 C 115.516 88.6453 114.148 89.2213 112.996 90.3733 C 111.844 91.5253 111.34 92.8213 111.34 94.4053 L 111.34 97.2133 C 111.34 99.0133 111.052 100.7413 110.476 102.3253 C 109.9 103.9093 109.108 105.3493 108.1 106.5733 C 107.092 107.8693 105.796 108.8773 104.356 109.5973 C 102.844 110.3173 101.116 110.6773 99.244 110.6773 C 97.372 110.6773 95.644 110.3173 94.132 109.5973 C 92.62 108.8773 91.324 107.8693 90.316 106.5733 C 89.308 105.3493 88.516 103.9093 87.94 102.2533 C 87.364 100.6693 87.148 98.9413 87.148 97.0693 C 87.148 95.3413 87.364 93.6133 87.94 92.0293 C 88.516 90.4453 89.308 89.0053 90.316 87.7813 C 91.324 86.6293 92.62 85.6213 94.132 84.9013 C 95.572 84.1813 97.3 83.8213 99.244 83.8213 L 119.692 83.8213 Z"/></g></g></g>
  <g transform="matrix(1 0 0 1 -229.8962 -2.7361)"><g><g transform="matrix(1 0 0 1 0 0)"><path style="stroke:none;fill:rgb(32,29,35);fill-rule:nonzero;" transform="translate(-100.036,-97.5373)" d="M 118.36 77.2693 L 116.272 77.2693 C 115.408 77.2693 114.544 77.4853 113.824 77.7733 C 113.104 78.1333 112.456 78.5653 111.88 79.1413 C 111.304 79.7173 110.8 80.3653 110.512 81.0853 C 110.224 81.8053 110.08 82.6693 110.08 83.5333 L 110.08 99.5893 C 110.08 103.1173 109.144 105.8533 107.344 107.7973 C 105.544 109.6693 103.096 110.6053 100 110.6053 C 96.904 110.6053 94.456 109.6693 92.656 107.7973 C 90.856 105.9253 89.992 103.1173 89.992 99.5173 L 89.992 83.4613 C 89.992 82.5973 89.776 81.8053 89.488 81.0853 C 89.128 80.3653 88.696 79.7173 88.12 79.1413 C 87.544 78.5653 86.896 78.1333 86.176 77.7733 C 85.456 77.4853 84.592 77.2693 83.728 77.2693 L 81.712 77.2693 L 81.712 100.7413 C 81.712 104.4133 82.432 107.5093 83.872 110.0293 C 85.312 112.6213 87.256 114.5653 89.704 115.8613 C 92.296 117.1573 95.104 117.8053 98.2 117.8053 L 100 117.8053 C 103.312 117.8053 106.264 117.1573 108.856 115.7173 C 111.736 114.2773 114.04 112.1893 115.768 109.5253 C 117.496 106.8613 118.288 103.9093 118.288 100.5973 Z"/></g></g></g>
  <g transform="matrix(1 0 0 1 -172.4041 -3.312)"><g><g transform="matrix(1 0 0 1 0 0)"><path style="stroke:none;fill:rgb(32,29,35);fill-rule:nonzero;" transform="translate(-100.18,-96.9613)" d="M 130.492 84.3973 C 129.052 81.8053 127.036 79.8613 124.588 78.5653 C 122.068 77.2693 119.26 76.6213 116.164 76.6213 C 113.14 76.6213 110.404 77.3413 107.884 78.7813 C 105.292 80.2213 103.348 82.1653 102.196 84.5413 C 100.9 82.0213 99.028 80.0773 96.436 78.7093 C 93.844 77.3413 90.964 76.6933 87.868 76.6933 L 67.78 76.6933 L 67.78 83.8933 L 86.14 83.8933 C 89.236 83.8933 91.684 84.8293 93.412 86.7733 C 95.212 88.6453 96.148 91.3813 96.148 94.9813 L 96.148 117.3013 L 104.356 117.3013 L 104.356 94.9813 C 104.356 91.3093 105.22 88.5733 107.02 86.7733 C 108.748 84.8293 111.196 83.8933 114.364 83.8933 C 117.46 83.8933 119.908 84.8293 121.708 86.7733 C 123.436 88.5733 124.372 91.3093 124.372 94.9813 L 124.372 117.3013 L 132.58 117.3013 L 132.58 93.7573 C 132.58 90.0853 131.86 86.9893 130.492 84.3973 Z M 70.3 88.6453 L 67.78 88.6453 L 67.78 117.2293 L 76.06 117.2293 L 76.06 94.4053 C 76.06 92.8213 75.484 91.5253 74.332 90.3733 C 73.18 89.2213 71.884 88.6453 70.3 88.6453 Z"/></g></g></g>
  <g transform="matrix(1 0 0 1 -101.9161 -3.312)"><g><g transform="matrix(1 0 0 1 0 0)"><path style="stroke:none;fill:rgb(32,29,35);fill-rule:nonzero;" transform="translate(-100.18,-96.9613)" d="M 130.492 84.3973 C 129.052 81.8053 127.036 79.8613 124.588 78.5653 C 122.068 77.2693 119.26 76.6213 116.164 76.6213 C 113.14 76.6213 110.404 77.3413 107.884 78.7813 C 105.292 80.2213 103.348 82.1653 102.196 84.5413 C 100.9 82.0213 99.028 80.0773 96.436 78.7093 C 93.844 77.3413 90.964 76.6933 87.868 76.6933 L 67.78 76.6933 L 67.78 83.8933 L 86.14 83.8933 C 89.236 83.8933 91.684 84.8293 93.412 86.7733 C 95.212 88.6453 96.148 91.3813 96.148 94.9813 L 96.148 117.3013 L 104.356 117.3013 L 104.356 94.9813 C 104.356 91.3093 105.22 88.5733 107.02 86.7733 C 108.748 84.8293 111.196 83.8933 114.364 83.8933 C 117.46 83.8933 119.908 84.8293 121.708 86.7733 C 123.436 88.5733 124.372 91.3093 124.372 94.9813 L 124.372 117.3013 L 132.58 117.3013 L 132.58 93.7573 C 132.58 90.0853 131.86 86.9893 130.492 84.3973 Z M 70.3 88.6453 L 67.78 88.6453 L 67.78 117.2293 L 76.06 117.2293 L 76.06 94.4053 C 76.06 92.8213 75.484 91.5253 74.332 90.3733 C 73.18 89.2213 71.884 88.6453 70.3 88.6453 Z"/></g></g></g>
  <g transform="matrix(1 0 0 1 -44.9641 -2.988)"><g><g transform="matrix(1 0 0 1 0 0)"><path style="stroke:none;fill:rgb(32,29,35);fill-rule:nonzero;" transform="translate(-99.172,-97.2853)" d="M 119.692 76.6213 L 97.516 76.6213 C 94.636 76.6213 92.044 77.1973 89.74 78.2773 C 87.436 79.3573 85.42 80.7973 83.764 82.6693 C 82.108 84.5413 80.812 86.7733 79.948 89.2213 C 79.084 91.6693 78.652 94.3333 78.652 97.0693 C 78.652 99.8053 79.084 102.4693 79.948 104.9173 C 80.812 107.4373 82.036 109.6693 83.62 111.6133 C 85.204 113.4853 87.22 115.0693 89.524 116.2213 C 91.828 117.3733 94.42 117.9493 97.372 117.9493 C 98.668 117.9493 99.964 117.8053 101.332 117.5173 C 102.628 117.2293 103.924 116.7973 105.148 116.2213 C 106.372 115.6453 107.524 114.9973 108.604 114.2053 C 109.612 113.3413 110.548 112.4053 111.34 111.3253 L 111.34 117.3013 L 119.692 117.3013 L 119.692 88.7173 L 117.1 88.7173 C 115.516 88.7173 114.148 89.2213 112.996 90.3733 C 111.844 91.5253 111.34 92.8933 111.34 94.4773 L 111.34 97.2853 C 111.34 99.0133 111.052 100.7413 110.476 102.3253 C 109.9 103.9093 109.108 105.3493 108.1 106.6453 C 107.092 107.8693 105.796 108.8773 104.356 109.5973 C 102.844 110.3173 101.116 110.6773 99.244 110.6773 C 97.372 110.6773 95.644 110.3173 94.132 109.5973 C 92.62 108.8773 91.324 107.8693 90.316 106.6453 C 89.308 105.3493 88.516 103.9093 87.94 102.3253 C 87.364 100.6693 87.148 98.9413 87.148 97.1413 C 87.148 95.3413 87.364 93.6133 87.94 92.0293 C 88.516 90.4453 89.308 89.0053 90.316 87.8533 C 91.324 86.6293 92.62 85.6933 94.132 84.9733 C 95.572 84.2533 97.3 83.8933 99.244 83.8933 L 119.692 83.8933 Z"/></g></g></g>
  <g transform="matrix(1 0 0 1 -13.0321 -9.864)"><g><g transform="matrix(1 0 0 1 0 0)"><path style="stroke:none;fill:rgb(32,29,35);fill-rule:nonzero;" transform="translate(-99.964,-90.4093)" d="M 104.104 63.5893 L 95.824 63.5893 L 95.824 111.4693 C 95.824 113.0533 96.328 114.4213 97.48 115.5733 C 98.632 116.7253 100 117.2293 101.584 117.2293 L 104.104 117.2293 Z"/></g></g></g>
  <g transform="matrix(1 0 0 1 4.1759 -9.864)"><g><g transform="matrix(1 0 0 1 0 0)"><path style="stroke:none;fill:rgb(32,29,35);fill-rule:nonzero;" transform="translate(-99.964,-90.4093)" d="M 104.104 63.5893 L 95.824 63.5893 L 95.824 111.4693 C 95.824 113.0533 96.328 114.4213 97.48 115.5733 C 98.632 116.7253 100 117.2293 101.584 117.2293 L 104.104 117.2293 Z"/></g></g></g>
  <g transform="matrix(1 0 0 1 36.1079 -2.988)"><g><g transform="matrix(1 0 0 1 0 0)"><path style="stroke:none;fill:rgb(32,29,35);fill-rule:nonzero;" transform="translate(-99.172,-97.2853)" d="M 119.692 76.6213 L 97.516 76.6213 C 94.636 76.6213 92.044 77.1973 89.74 78.2773 C 87.436 79.3573 85.42 80.7973 83.764 82.6693 C 82.108 84.5413 80.812 86.7733 79.948 89.2213 C 79.084 91.6693 78.652 94.3333 78.652 97.0693 C 78.652 99.8053 79.084 102.4693 79.948 104.9173 C 80.812 107.4373 82.036 109.6693 83.62 111.6133 C 85.204 113.4853 87.22 115.0693 89.524 116.2213 C 91.828 117.3733 94.42 117.9493 97.372 117.9493 C 98.668 117.9493 99.964 117.8053 101.332 117.5173 C 102.628 117.2293 103.924 116.7973 105.148 116.2213 C 106.372 115.6453 107.524 114.9973 108.604 114.2053 C 109.612 113.3413 110.548 112.4053 111.34 111.3253 L 111.34 117.3013 L 119.692 117.3013 L 119.692 88.7173 L 117.1 88.7173 C 115.516 88.7173 114.148 89.2213 112.996 90.3733 C 111.844 91.5253 111.34 92.8933 111.34 94.4773 L 111.34 97.2853 C 111.34 99.0133 111.052 100.7413 110.476 102.3253 C 109.9 103.9093 109.108 105.3493 108.1 106.6453 C 107.092 107.8693 105.796 108.8773 104.356 109.5973 C 102.844 110.3173 101.116 110.6773 99.244 110.6773 C 97.372 110.6773 95.644 110.3173 94.132 109.5973 C 92.62 108.8773 91.324 107.8693 90.316 106.6453 C 89.308 105.3493 88.516 103.9093 87.94 102.3253 C 87.364 100.6693 87.148 98.9413 87.148 97.1413 C 87.148 95.3413 87.364 93.6133 87.94 92.0293 C 88.516 90.4453 89.308 89.0053 90.316 87.8533 C 91.324 86.6293 92.62 85.6933 94.132 84.9733 C 95.572 84.2533 97.3 83.8933 99.244 83.8933 L 119.692 83.8933 Z"/></g></g></g>
  <!-- W - orange -->
  <g transform="matrix(1 0 0 1 162.2158 -8.2081)"><g>
    <g transform="matrix(1 0 0 1 23.508 -0.036)"><path style="stroke:none;fill:rgb(247,99,0);fill-rule:nonzero;" transform="translate(-123.508,-92.0293)" d="M 134.884 66.8293 L 131.716 66.8293 C 129.988 66.8293 128.476 67.3333 127.18 68.3413 C 125.812 69.3493 124.948 70.7173 124.516 72.3733 L 115.156 106.4293 L 112.132 117.2293 L 115.66 117.2293 C 116.884 117.2293 118.036 116.8693 119.044 116.1493 C 120.052 115.4293 120.7 114.4213 121.132 113.1253 Z"/></g>
    <g transform="matrix(1 0 0 1 -3.2765 0)"><path style="stroke:none;fill:rgb(247,99,0);fill-rule:nonzero;" transform="translate(-96.7236,-92.0653)" d="M 111.124 90.8053 L 106.156 71.3653 C 105.724 70.0693 105.004 68.9893 103.996 68.1253 C 102.916 67.2613 101.692 66.8293 100.324 66.8293 C 98.884 66.8293 97.66 67.2613 96.652 68.0533 C 95.572 68.9173 94.852 69.9973 94.492 71.2933 L 81.892 117.3013 L 84.484 117.2293 C 85.708 117.2293 86.86 116.8693 87.868 116.1493 C 88.876 115.4293 89.524 114.4213 89.956 113.1253 L 99.964 79.0693 L 108.172 108.4453 L 110.836 99.5893 C 111.7 96.7093 111.772 93.8293 111.124 90.8053 Z"/></g>
    <g transform="matrix(1 0 0 1 -27.6081 -4.176)"><path style="stroke:none;fill:rgb(247,99,0);fill-rule:nonzero;" transform="translate(-72.3919,-87.8893)" d="M 78.364 84.0373 L 77.86 82.3093 C 76.924 78.9973 75.844 76.3333 74.62 74.3173 C 73.324 72.3013 72.1 70.7893 70.876 69.7093 C 69.652 68.6293 68.5 67.9093 67.492 67.4773 C 66.412 67.1173 65.62 66.9013 65.116 66.8293 L 76.996 108.9493 C 77.932 107.0773 78.58 104.9173 79.012 102.3973 C 79.444 100.2373 79.66 97.6453 79.66 94.5493 C 79.732 91.5253 79.3 87.9973 78.364 84.0373 Z"/></g>
  </g></g>
  <!-- orks - orange -->
  <g transform="matrix(1 0 0 1 215.9639 -2.988)"><g><g transform="matrix(1 0 0 1 0 0)"><path style="stroke:none;fill:rgb(247,99,0);fill-rule:nonzero;" transform="translate(-100,-97.2853)" d="M 120.376 97.2133 C 120.376 94.1893 119.872 91.4533 118.864 88.9333 C 117.856 86.4133 116.416 84.2533 114.616 82.3813 C 112.816 80.5813 110.656 79.1413 108.208 78.1333 C 105.688 77.1253 102.952 76.6213 100 76.6213 C 96.976 76.6213 94.24 77.1253 91.792 78.1333 C 89.272 79.1413 87.112 80.5813 85.312 82.3813 C 83.512 84.1813 82.144 86.3413 81.136 88.8613 C 80.128 91.4533 79.624 94.1893 79.624 97.2133 C 79.624 100.1653 80.056 102.9013 80.992 105.4213 C 81.928 107.9413 83.296 110.1013 85.024 111.9733 C 86.752 113.8453 88.84 115.2853 91.288 116.3653 C 93.736 117.3733 96.544 117.9493 99.64 117.9493 C 102.592 117.9493 105.328 117.4453 107.848 116.4373 C 110.368 115.4293 112.528 113.9893 114.4 112.1173 C 116.272 110.2453 117.712 108.0853 118.792 105.5653 C 119.8 103.0453 120.376 100.2373 120.376 97.2133 Z M 111.88 97.2853 C 111.88 99.1573 111.592 100.8853 111.016 102.5413 C 110.44 104.1253 109.648 105.5653 108.64 106.7893 C 107.56 108.0133 106.264 108.9493 104.752 109.6693 C 103.24 110.3893 101.512 110.7493 99.64 110.7493 C 97.624 110.7493 95.896 110.3893 94.456 109.6693 C 93.016 108.9493 91.792 107.9413 90.856 106.7173 C 89.848 105.4933 89.128 104.0533 88.696 102.4693 C 88.264 100.8133 88.048 99.0853 88.048 97.2853 C 88.048 95.4133 88.264 93.6853 88.768 92.1013 C 89.2 90.5173 89.92 89.0773 90.928 87.8533 C 91.936 86.6293 93.16 85.6933 94.672 84.9733 C 96.112 84.2533 97.84 83.8933 99.856 83.8933 C 101.728 83.8933 103.456 84.1813 104.968 84.9013 C 106.408 85.6213 107.704 86.5573 108.712 87.7813 C 109.72 89.0053 110.512 90.4453 111.088 92.0293 C 111.592 93.6133 111.88 95.4133 111.88 97.2853 Z"/></g></g></g>
  <g transform="matrix(1 0 0 1 251.7839 -3.312)"><g><g transform="matrix(1 0 0 1 0 0)"><path style="stroke:none;fill:rgb(247,99,0);fill-rule:nonzero;" transform="translate(-101.476,-96.9613)" d="M 111.592 76.6213 L 107.056 76.6213 C 105.76 76.6213 104.536 76.7653 103.384 76.9093 C 102.232 77.1253 101.152 77.4133 100.144 77.7733 C 97.336 78.8533 95.176 80.5093 93.664 82.8133 C 92.08 85.1173 91.36 87.9253 91.36 91.3813 L 91.36 117.3013 L 99.64 117.3013 L 99.64 96.2773 C 99.64 92.1733 100.432 89.2933 102.16 87.6373 C 103.744 86.0533 106.192 85.1893 109.504 85.1893 L 111.592 85.1893 Z"/></g></g></g>
  <g transform="matrix(1 0 0 1 284.1839 -9.864)"><g><g transform="matrix(1 0 0 1 -12.96 0)"><path style="stroke:none;fill:rgb(247,99,0);fill-rule:nonzero;" transform="translate(-88.84,-90.4093)" d="M 84.7 63.5893 L 84.7 117.2293 L 92.98 117.2293 L 92.98 63.5893 Z"/></g><g transform="matrix(1 0 0 1 4.9231 6.84)"><path style="stroke:none;fill:rgb(247,99,0);fill-rule:nonzero;" transform="translate(-106.7232,-97.2493)" d="M 104.572 93.4693 L 118.9 77.2693 L 107.452 77.2693 L 96.796 90.1573 C 96.004 91.3093 95.428 92.6053 95.068 93.9013 C 94.636 95.1973 94.492 96.5653 94.564 97.9333 C 94.636 99.3013 94.924 100.5973 95.428 101.8933 C 95.932 103.1893 96.652 104.3413 97.588 105.4213 L 98.164 106.0693 L 107.74 117.2293 L 118.9 117.2293 L 104.572 101.1013 C 103.564 100.0213 103.132 98.7253 103.132 97.2853 C 103.132 95.8453 103.564 94.6213 104.572 93.4693 Z"/></g></g></g>
  <g transform="matrix(1 0 0 1 319.8602 -3.0241)"><g><g transform="matrix(1 0 0 1 0 0)"><path style="stroke:none;fill:rgb(247,99,0);fill-rule:nonzero;" transform="translate(-99.892,-97.2493)" d="M 115.876 106.0693 C 115.804 104.0533 115.372 102.3253 114.508 100.9573 C 113.644 99.6613 112.492 98.5093 111.196 97.6453 C 109.9 96.7813 108.388 96.1333 106.732 95.5573 C 105.076 94.9813 103.42 94.4773 101.836 94.0453 C 100.684 93.7573 99.748 93.4693 98.956 93.1813 C 98.092 92.9653 97.444 92.7493 96.868 92.4613 C 95.86 92.1733 94.996 91.5973 94.132 90.8773 C 93.268 90.1573 92.908 89.2933 92.908 88.1413 C 92.908 87.2773 93.124 86.4853 93.556 85.9093 C 93.988 85.3333 94.492 84.8293 95.14 84.4693 C 95.788 84.1813 96.508 83.9653 97.372 83.8213 C 98.164 83.6773 98.956 83.6053 99.676 83.6053 C 101.044 83.6053 102.268 83.8213 103.348 84.2533 C 104.428 84.6853 105.364 85.4773 106.228 86.6293 C 106.732 87.4933 107.38 88.2133 108.244 88.7173 C 109.108 89.2213 110.044 89.4373 111.052 89.4373 L 115.372 89.4373 C 115.228 87.2773 114.724 85.4053 113.86 83.8213 C 112.996 82.2373 111.916 80.8693 110.548 79.7893 C 109.108 78.7813 107.524 77.9893 105.724 77.4133 C 103.852 76.9093 101.98 76.6213 99.964 76.6213 C 98.236 76.6213 96.436 76.8373 94.636 77.2693 C 92.764 77.7013 91.108 78.4213 89.668 79.3573 C 88.156 80.2933 86.932 81.4453 85.996 82.8853 C 84.988 84.3253 84.556 86.1253 84.556 88.1413 C 84.556 90.5893 85.132 92.6773 86.428 94.2613 C 87.652 95.8453 89.38 97.1413 91.54 98.0053 C 93.34 98.7973 95.788 99.5893 98.812 100.3813 C 100.324 100.8133 101.692 101.2453 102.844 101.6773 C 103.996 102.1093 104.932 102.4693 105.652 102.8293 C 107.02 103.5493 107.74 104.7013 107.74 106.1413 C 107.74 107.5093 107.092 108.6613 105.868 109.5973 C 104.572 110.4613 102.772 110.8933 100.468 110.8933 C 99.1 110.8933 97.732 110.6773 96.436 110.1733 C 95.14 109.6693 94.06 108.8053 93.34 107.5813 C 92.764 106.7893 92.116 106.1413 91.324 105.7093 C 90.46 105.2773 89.596 104.9893 88.66 104.9893 L 83.908 104.9893 C 83.98 107.1493 84.556 109.0933 85.564 110.6773 C 86.572 112.2613 87.868 113.6293 89.452 114.7093 C 91.036 115.7893 92.764 116.5813 94.78 117.0853 C 96.724 117.6613 98.668 117.8773 100.612 117.8773 C 102.412 117.8773 104.212 117.6613 106.012 117.2293 C 107.812 116.7973 109.468 116.1493 110.908 115.1413 C 112.348 114.2053 113.572 112.9813 114.508 111.4693 C 115.372 110.0293 115.876 108.2293 115.876 106.0693 Z"/></g></g></g>
</g>
</g>
<!-- Lightbulb icon -->
<g transform="matrix(0.8882 0 0 0.8609 623.0467 353.994)">
<g><g transform="matrix(1 0 0 1 0 0)"><path style="stroke:none;fill:rgb(32,29,35);fill-rule:nonzero;" transform="translate(-47.4849,-47.5)" d="M 47.5 13.989 C 35.8311 13.9884 25.4008 21.2672 21.3758 32.22 C 17.3507 43.1727 20.5856 55.4734 29.478 63.029 C 31.9877 65.1011 33.8105 67.8851 34.706 71.014 C 33.8997 71.7151 33.4371 72.7315 33.438 73.8 L 33.438 75.557 C 33.4393 76.8981 34.1663 78.1336 35.338 78.786 L 35.338 79.592 C 35.3415 82.5687 37.5102 85.1004 40.451 85.561 L 40.451 88.487 C 40.4565 91.5302 42.9228 93.9956 45.966 94 L 49.034 94 C 52.0796 93.9967 54.5477 91.5286 54.551 88.483 L 54.551 85.557 C 57.4918 85.0964 59.6605 82.5647 59.664 79.588 L 59.664 78.782 C 60.8357 78.1296 61.5627 76.8941 61.564 75.553 L 61.564 73.8 C 61.5637 72.7329 61.1012 71.7182 60.296 71.018 C 61.1915 67.8891 63.0143 65.1051 65.524 63.033 C 74.4199 55.4778 77.6569 43.1746 73.6309 32.2197 C 69.6049 21.2648 59.1713 13.9856 47.5 13.989 Z M 57.862 72.629 C 58.1721 72.6293 58.4694 72.7529 58.6883 72.9725 C 58.9072 73.1922 59.0298 73.4899 59.029 73.8 L 59.029 75.557 C 59.0284 76.2013 58.5063 76.7234 57.862 76.724 L 37.138 76.724 C 36.4937 76.7234 35.9716 76.2013 35.971 75.557 L 35.971 73.8 C 35.9716 73.1557 36.4937 72.6336 37.138 72.633 Z M 49.034 91.467 L 45.966 91.467 C 44.3189 91.4648 42.9842 90.1301 42.982 88.483 L 42.982 85.629 L 52.018 85.629 L 52.018 88.483 C 52.0158 90.1301 50.6811 91.4648 49.034 91.467 Z M 53.624 83.096 L 41.376 83.096 C 39.4399 83.0932 37.8712 81.5241 37.869 79.588 L 37.869 79.253 L 57.131 79.253 L 57.131 79.588 C 57.131 81.5257 55.5617 83.0972 53.624 83.1 Z M 63.881 61.096 C 61.0484 63.4405 58.9749 66.5726 57.923 70.096 L 37.078 70.096 C 36.0253 66.5727 33.9516 63.4407 31.119 61.096 C 23.035 54.2278 20.0938 43.046 23.7524 33.0892 C 27.411 23.1324 36.8923 16.5151 47.5 16.5151 C 58.1077 16.5151 67.589 23.1324 71.2476 33.0892 C 74.9062 43.046 71.965 54.2278 63.881 61.096 Z M 46.233 8.939 L 46.233 2.267 C 46.233 1.8143 46.4745 1.3961 46.8665 1.1697 C 47.2585 0.9434 47.7415 0.9434 48.1335 1.1697 C 48.5255 1.3961 48.767 1.8143 48.767 2.267 L 48.767 8.939 C 48.767 9.6387 48.1997 10.206 47.5 10.206 C 46.8003 10.206 46.233 9.6387 46.233 8.939 Z M 40.9 43.971 C 40.8969 45.5854 40.231 47.1277 39.058 48.237 C 38.4577 48.5602 37.8543 48.6808 37.8128 48.5521 C 37.3714 48.4233 37.0343 48.0655 36.9322 47.6171 C 36.83 47.1688 36.9788 46.7002 37.321 46.393 C 38.4577 45.3241 38.6969 43.6081 37.896 42.269 C 36.0471 40.2396 36.8192 40.1026 37.3938 39.6389 C 37.9684 39.1752 38.2655 38.4495 38.181 37.716 C 38.1133 37.0278 38.6099 36.4124 39.2969 36.3332 C 39.9839 36.2541 40.6075 36.7404 40.698 37.426 C 40.832 38.5683 40.5389 39.7198 39.875 40.659 C 40.5442 41.6337 40.9017 42.7887 40.9 43.971 Z M 63.849 41.959 C 62.6167 41.9608 61.5007 42.687 61 43.813 L 56.811 43.813 C 56.3673 43.8128 55.956 44.045 55.727 44.425 L 53.332 48.394 L 48.689 48.394 L 48.689 47.306 L 52.938 47.306 C 53.399 47.319 53.8306 47.0804 54.0649 46.6832 C 54.2992 46.2861 54.2992 45.7929 54.0649 45.3958 C 53.8306 44.9986 53.399 44.76 52.938 44.773 L 48.689 44.773 L 48.689 43.564 L 54.809 43.564 C 55.4946 43.5447 56.0404 42.9834 56.0404 42.2975 C 56.0404 41.6116 55.4946 41.0503 54.809 41.031 L 48.689 41.031 L 48.689 40.818 L 55.965 40.818 C 56.5632 42.1654 58.0227 42.9104 59.4648 42.6046 C 60.907 42.2989 61.9385 41.0257 61.9385 39.5515 C 61.9385 38.0773 60.907 36.8041 59.4648 36.4984 C 58.0227 36.1926 56.5632 36.9376 55.965 38.285 L 48.689 38.285 L 48.689 36.441 L 53.226 36.441 C 53.9257 36.441 54.493 35.8737 54.493 35.174 C 54.493 34.4743 53.9257 33.907 53.226 33.907 L 48.689 33.907 L 48.689 32.281 L 53.155 32.281 L 54.155 34.019 C 54.3816 34.412 54.8014 34.6535 55.255 34.652 L 57.724 34.652 C 58.185 34.665 58.6166 34.4264 58.8509 34.0292 C 59.0852 33.6321 59.0852 33.1389 58.8509 32.7418 C 58.6166 32.3446 58.185 32.106 57.724 32.119 L 55.987 32.119 L 54.987 30.381 C 54.7601 29.9883 54.3405 29.7469 53.887 29.748 L 48.687 29.748 L 48.687 28.917 L 57.442 28.917 L 60.442 32.177 C 59.8498 33.5343 60.2888 35.1209 61.4945 35.9807 C 62.7002 36.8405 64.3432 36.7387 65.4336 35.7367 C 66.5239 34.7346 66.7638 33.106 66.0085 31.8321 C 65.2533 30.5583 63.7094 29.9872 62.307 30.463 L 58.931 26.793 C 58.6912 26.533 58.3538 26.3847 58 26.384 L 48.689 26.384 L 48.689 24.884 C 48.6888 24.5727 48.5742 24.2723 48.367 24.04 C 46.567 22.021 44.227 21.287 42.119 22.075 C 41.2375 22.4084 40.4598 22.969 39.865 23.7 C 38.1033 23.2679 36.2432 23.7722 34.941 25.035 C 33.3663 26.6285 32.7126 28.9149 33.207 31.1 C 32.8552 31.4361 32.5781 31.8426 32.394 32.293 C 30.9187 32.8323 29.7373 33.9655 29.137 35.417 C 28.3731 37.1696 28.396 39.1654 29.2 40.9 C 28.7578 41.9727 28.8552 43.1921 29.462 44.181 C 28.9465 45.6751 28.8582 47.2834 29.207 48.825 C 29.6709 51.0045 31.1787 52.8157 33.238 53.667 C 33.6092 54.7676 34.4395 55.653 35.514 56.094 C 35.8468 57.7837 36.7318 59.2612 38.089 60.196 C 39.0854 60.9844 40.3081 61.433 41.578 61.476 C 42.2384 61.4852 42.8885 61.3122 43.457 60.976 C 44.7267 60.5347 46.0733 60.3577 47.414 60.456 C 47.7518 60.4619 48.0771 60.3289 48.314 60.088 C 48.5536 59.8498 48.6882 59.5258 48.688 59.188 L 48.688 57.8 L 54.6 57.8 C 55.0535 57.8009 55.4729 57.5595 55.7 57.167 L 57.365 54.283 L 58.433 54.283 C 59.0312 55.6304 60.4907 56.3754 61.9328 56.0696 C 63.375 55.7639 64.4065 54.4907 64.4065 53.0165 C 64.4065 51.5423 63.375 50.2691 61.9328 49.9634 C 60.4907 49.6576 59.0312 50.4026 58.433 51.75 L 56.633 51.75 C 56.1795 51.7491 55.7601 51.9905 55.533 52.383 L 53.869 55.267 L 48.689 55.267 L 48.689 54.655 L 52.513 54.655 C 52.974 54.668 53.4056 54.4294 53.6399 54.0322 C 53.8742 53.6351 53.8742 53.1419 53.6399 52.7448 C 53.4056 52.3476 52.974 52.109 52.513 52.122 L 48.689 52.122 L 48.689 50.922 L 54.047 50.922 C 54.4909 50.9222 54.9025 50.69 55.132 50.31 L 57.526 46.341 L 61 46.341 C 61.6322 47.7617 63.2143 48.4997 64.7091 48.0712 C 66.2039 47.6427 67.1548 46.1786 66.9382 44.6387 C 66.7217 43.0989 65.404 41.9537 63.849 41.954 Z M 42.145 58.81 C 41.2445 59.0491 40.2845 58.8046 39.608 58.164 C 38.8726 57.6655 38.366 56.8948 38.2 56.022 C 38.9234 55.899 38.7234 55.745 38.957 55.563 C 39.3333 55.2927 39.5319 54.8385 39.4748 54.3787 C 39.4177 53.9189 39.114 53.5271 38.683 53.357 C 38.2521 53.187 37.7626 53.266 37.407 53.563 C 37.2813 53.6645 37.1354 53.7382 36.979 53.779 C 36.6656 53.8014 36.5533 53.7793 36.448 53.737 C 35.9607 53.5119 35.6231 53.0523 35.554 52.52 C 35.4805 52.0599 35.1595 51.6778 34.719 51.526 C 33.3624 51.1264 32.2823 50.0962 31.819 48.76 C 31.5066 47.7797 31.4478 46.7362 31.648 45.727 C 32.6018 45.7674 33.0761 45.6506 33.504 45.429 C 33.9162 45.2285 34.188 44.821 34.2147 44.3634 C 34.2415 43.9058 34.0189 43.4695 33.6328 43.2224 C 33.2468 42.9753 32.7573 42.9561 32.353 43.172 C 32.253 43.224 32.018 43.344 31.732 43.011 C 31.4024 42.6204 31.3766 42.0571 31.669 41.638 C 31.9711 41.2182 31.9877 40.6569 31.711 40.22 C 31.0112 39.0777 30.9159 37.6649 31.456 36.439 C 31.6675 35.9391 31.9957 35.4971 32.413 35.15 C 32.6003 35.5977 32.8809 36.0003 33.236 36.331 C 33.7526 36.79 34.5417 36.7504 35.0097 36.242 C 35.4777 35.7336 35.452 34.9439 34.952 34.467 C 34.7092 34.2165 34.6016 33.8645 34.663 33.521 C 35.7613 32.5695 36.0806 31.8712 35.861 31.233 C 35.2877 29.7383 35.6108 28.0479 36.695 26.87 C 37.5803 26.052 38.8751 25.857 39.962 26.378 C 40.5965 26.6257 41.3132 26.327 41.584 25.702 C 41.889 25.1262 42.3951 24.6827 43.006 24.456 C 44.1504 24.1217 45.3843 24.4924 46.155 25.402 L 46.155 28.25 C 45.9227 27.8847 45.5199 27.6634 45.087 27.663 C 44.7511 27.6638 44.4292 27.7981 44.1923 28.0363 C 43.9554 28.2745 43.8229 28.5971 43.824 28.933 C 43.8529 30.0615 43.4286 31.1545 42.646 31.968 C 41.6568 31.6847 40.5951 31.8131 39.702 32.324 C 39.0945 32.6703 38.8827 33.4435 39.229 34.051 C 39.5753 34.6585 40.3485 34.8703 40.956 34.524 C 41.3605 34.3003 41.8515 34.3003 42.256 34.524 L 42.307 34.552 C 42.5661 34.6976 42.7896 34.8992 42.961 35.142 C 43.2217 35.5199 43.6665 35.7272 44.1236 35.6839 C 44.5807 35.6405 44.9785 35.3532 45.1635 34.933 C 45.3485 34.5128 45.2917 34.0254 45.015 33.659 C 44.945 33.559 44.871 33.47 44.795 33.381 C 45.4583 32.5897 45.9262 31.6535 46.161 30.648 L 46.161 43.12 C 46.007 45.082 45.797 47.637 44.506 49.32 C 43.7 48.5911 42.7243 48.0754 41.668 47.82 C 40.9949 47.6736 40.3282 48.0918 40.1669 48.7615 C 40.0057 49.4312 40.409 50.107 41.075 50.283 C 43.0353 50.7593 44.3404 52.6129 44.128 54.619 C 44.0733 55.1237 44.3253 55.6122 44.7683 55.8602 C 45.2112 56.1081 45.7594 56.0675 46.161 55.757 L 46.161 57.946 C 44.7753 57.9372 43.4045 58.2321 42.145 58.81 Z"/></g></g>
</g>
</svg>
